<svg version="1.1" id="Layer_1" xmlns="http://www.w3.org/2000/svg" xmlns:xlink="http://www.w3.org/1999/xlink" x="0px" y="0px"
	 width="100%" viewBox="0 0 512 512" enable-background="new 0 0 512 512" xml:space="preserve">
<path fill="#000000" opacity="1.000000" stroke="none" 
	d="
M96.000000,513.000000 
	C64.350807,513.000000 32.701618,513.000000 1.026214,513.000000 
	C1.026214,342.445007 1.026214,171.889999 1.026214,1.000000 
	C62.687157,1.000000 124.374924,1.000000 186.824646,1.319671 
	C187.268341,2.022672 187.023697,2.619022 186.621048,2.758158 
	C176.731674,6.175413 168.353729,11.669474 162.206619,20.294744 
	C155.041565,30.348330 152.046295,41.633259 153.123795,53.807617 
	C153.701035,60.329800 153.230942,62.274868 147.016327,63.981071 
	C116.370178,72.394875 85.715683,80.781837 54.999832,88.936043 
	C45.328117,91.503616 36.672283,101.010490 38.150127,109.556328 
	C39.583038,117.842323 42.176605,125.927605 44.216148,133.927322 
	C156.577545,103.818413 268.346558,73.868240 380.145111,43.910145 
	C377.975464,36.357449 376.116669,29.394405 373.964447,22.523289 
	C371.432709,14.440499 360.680908,7.334998 353.172028,9.095332 
	C343.636597,11.330746 334.229340,14.112227 324.765106,16.651850 
	C301.968323,22.769114 279.185852,28.940557 256.363190,34.959614 
	C250.156677,36.596462 248.955612,35.880825 245.994003,29.724075 
	C239.768295,16.781746 230.496094,7.273700 216.462845,2.938099 
	C215.835526,2.744284 215.481384,1.666209 215.000000,1.000004 
	C314.286774,1.000000 413.573578,1.000000 512.930176,1.000000 
	C512.930176,171.666656 512.930176,342.333344 512.930176,513.000000 
	C471.898956,513.000000 430.918121,513.000000 389.181610,512.707642 
	C394.060028,508.767487 397.483490,503.566010 397.928101,496.933624 
	C398.832092,483.448456 399.307861,469.934906 400.007477,456.435547 
	C400.638214,444.265564 401.366913,432.100647 401.988983,419.930267 
	C402.696045,406.097961 403.296021,392.260223 404.011169,378.428375 
	C404.623199,366.590668 405.375061,354.760223 405.987061,342.922516 
	C406.702209,329.090668 407.399506,315.257263 407.978333,301.419220 
	C408.420776,290.841034 408.621948,280.252960 409.016541,269.672485 
	C409.268372,262.918793 409.668396,256.170502 410.017273,249.420578 
	C410.672058,236.752182 411.419220,224.087158 411.856323,211.411362 
	C411.894257,210.310287 410.055054,208.323303 408.857880,208.123215 
	C388.829407,204.775650 373.512451,194.250778 361.991028,177.827972 
	C353.880402,166.266998 350.966766,152.999939 349.798981,139.000000 
	C347.689911,139.000000 345.880890,139.000000 344.071838,139.000000 
	C258.263519,139.000000 172.455170,138.966446 86.647003,139.073380 
	C80.752037,139.080734 74.858383,140.138123 68.806236,140.722412 
	C69.587959,151.602295 70.386101,161.422470 70.976906,171.255112 
	C71.737732,183.917419 72.342285,196.589203 72.995918,209.257843 
	C73.675270,222.425064 74.320114,235.594040 75.003700,248.761032 
	C75.652771,261.263306 76.352783,273.762939 76.993156,286.265625 
	C77.684616,299.765442 78.307716,313.268829 79.007462,326.768188 
	C79.638298,338.938141 80.360390,351.103424 80.991226,363.273376 
	C81.690979,376.772736 82.314064,390.276123 83.005516,403.775940 
	C83.645897,416.278625 84.399582,428.775848 84.981796,441.281128 
	C85.718811,457.111603 86.469925,472.943665 86.946442,488.783142 
	C87.214180,497.683136 87.307220,506.454803 95.961288,512.029907 
	C96.117622,512.130676 95.993340,512.666931 96.000000,513.000000 
M385.981934,183.478378 
	C392.888885,189.393127 400.896118,192.562393 409.864471,194.110764 
	C428.423126,197.314880 444.790741,192.857162 458.314362,180.002777 
	C474.050690,165.045212 478.903442,146.128174 473.790070,125.406883 
	C469.177460,106.714989 457.171631,93.699402 438.785675,87.003960 
	C428.526581,83.268013 417.952057,82.802673 407.483093,85.119888 
	C392.453766,88.446495 380.606750,96.861748 372.514130,110.042229 
	C364.950592,122.360916 362.056519,135.800476 365.072083,150.053406 
	C367.889801,163.371140 374.013580,174.883453 385.981934,183.478378 
z"/>
<path fill="#FFFFFF" opacity="1.000000" stroke="none" 
	d="
M96.468658,513.000000 
	C95.993340,512.666931 96.117622,512.130676 95.961288,512.029907 
	C87.307220,506.454803 87.214180,497.683136 86.946442,488.783142 
	C86.469925,472.943665 85.718811,457.111603 84.981796,441.281128 
	C84.399582,428.775848 83.645897,416.278625 83.005516,403.775940 
	C82.314064,390.276123 81.690979,376.772736 80.991226,363.273376 
	C80.360390,351.103424 79.638298,338.938141 79.007462,326.768188 
	C78.307716,313.268829 77.684616,299.765442 76.993156,286.265625 
	C76.352783,273.762939 75.652771,261.263306 75.003700,248.761032 
	C74.320114,235.594040 73.675270,222.425064 72.995918,209.257843 
	C72.342285,196.589203 71.737732,183.917419 70.976906,171.255112 
	C70.386101,161.422470 69.587959,151.602295 68.806236,140.722412 
	C74.858383,140.138123 80.752037,139.080734 86.647003,139.073380 
	C172.455170,138.966446 258.263519,139.000000 344.071838,139.000000 
	C345.880890,139.000000 347.689911,139.000000 349.798981,139.000000 
	C350.966766,152.999939 353.880402,166.266998 361.991028,177.827972 
	C373.512451,194.250778 388.829407,204.775650 408.857880,208.123215 
	C410.055054,208.323303 411.894257,210.310287 411.856323,211.411362 
	C411.419220,224.087158 410.672058,236.752182 410.017273,249.420578 
	C409.668396,256.170502 409.268372,262.918793 409.016541,269.672485 
	C408.621948,280.252960 408.420776,290.841034 407.978333,301.419220 
	C407.399506,315.257263 406.702209,329.090668 405.987061,342.922516 
	C405.375061,354.760223 404.623199,366.590668 404.011169,378.428375 
	C403.296021,392.260223 402.696045,406.097961 401.988983,419.930267 
	C401.366913,432.100647 400.638214,444.265564 400.007477,456.435547 
	C399.307861,469.934906 398.832092,483.448456 397.928101,496.933624 
	C397.483490,503.566010 394.060028,508.767487 388.712952,512.707642 
	C291.645782,513.000000 194.291550,513.000000 96.468658,513.000000 
M224.000000,252.500000 
	C224.000000,263.158600 224.000000,273.817169 224.000000,284.475769 
	C224.000000,340.433380 224.041901,396.391052 223.968674,452.348572 
	C223.951721,465.303131 233.734787,472.332977 241.756760,473.072571 
	C252.546417,474.067322 261.120361,462.219666 261.088898,453.412262 
	C260.906830,402.451508 261.000000,351.489777 261.000000,300.528381 
	C261.000000,266.387573 260.928070,232.246521 261.050140,198.106155 
	C261.080994,189.478302 252.446075,178.339081 242.275223,178.890350 
	C232.367584,179.427353 224.039917,188.080276 224.011932,199.039764 
	C223.967285,216.526413 224.000000,234.013245 224.000000,252.500000 
M160.327240,470.119446 
	C166.354538,465.577332 168.506927,459.567688 168.086014,452.063751 
	C167.428009,440.333008 167.326035,428.570892 167.002090,416.821655 
	C166.659790,404.406494 166.335114,391.990814 165.999557,379.575470 
	C165.668488,367.326599 165.331650,355.077911 165.000580,342.829041 
	C164.664993,330.413696 164.335114,317.998138 163.999542,305.582794 
	C163.668457,293.333923 163.264053,281.086609 163.016006,268.836060 
	C162.622971,249.423996 162.385330,230.008698 161.967270,210.597229 
	C161.847122,205.018097 161.522293,199.427963 160.952042,193.877731 
	C160.200104,186.558838 150.308960,178.377914 143.014511,179.036545 
	C132.374741,179.997223 124.450455,189.159668 124.976234,198.437225 
	C125.424530,206.347504 125.734222,214.267334 125.984329,222.186752 
	C126.376389,234.600327 126.664864,247.017151 127.000435,259.432526 
	C127.331505,271.681396 127.668343,283.930054 127.999413,296.178925 
	C128.334976,308.594269 128.664856,321.009827 129.000427,333.425171 
	C129.331512,345.674042 129.740067,357.921295 129.983231,370.171906 
	C130.378464,390.083832 130.611465,409.998993 131.025085,429.910461 
	C131.210373,438.829956 131.656586,447.744263 132.018753,456.659515 
	C132.050903,457.451111 132.320343,458.236603 132.509140,459.017761 
	C135.321228,470.653534 147.603104,476.833191 160.327240,470.119446 
M359.000000,235.521759 
	C359.333344,223.440628 359.523315,211.353134 360.058136,199.280930 
	C360.341858,192.876694 358.255066,187.781509 353.297729,183.808609 
	C344.565125,176.810104 335.723175,177.879547 327.613953,186.744675 
	C322.192047,192.671982 323.876984,200.107468 323.231720,206.810089 
	C322.076263,218.812286 322.328033,230.950333 322.001526,243.031876 
	C321.661560,255.612854 321.338470,268.194305 320.998505,280.775299 
	C320.672058,292.856842 320.328033,304.937866 320.001556,317.019409 
	C319.661591,329.600372 319.335083,342.181732 318.999542,354.762848 
	C318.668427,367.177429 318.331696,379.591919 318.000580,392.006531 
	C317.665009,404.587646 317.251282,417.167389 317.028656,429.750549 
	C316.878387,438.244690 316.692535,446.760193 317.147552,455.232574 
	C317.336151,458.744537 318.442047,462.647736 320.379181,465.535522 
	C324.686096,471.955994 331.364990,474.045898 338.872223,472.934631 
	C344.878571,472.045502 352.038025,465.020966 352.883484,458.962708 
	C353.631470,453.602905 353.789886,448.146698 353.972900,442.725098 
	C354.391785,430.313446 354.664886,417.896820 355.000458,405.482330 
	C355.331512,393.234314 355.668365,380.986481 355.999451,368.738464 
	C356.335022,356.323975 356.664856,343.909302 357.000458,331.494812 
	C357.331543,319.246796 357.735992,307.000305 357.984009,294.750610 
	C358.377045,275.339874 358.666626,255.927048 359.000000,235.521759 
z"/>
<path fill="#FFFFFF" opacity="1.000000" stroke="none" 
	d="
M214.531342,1.000004 
	C215.481384,1.666209 215.835526,2.744284 216.462845,2.938099 
	C230.496094,7.273700 239.768295,16.781746 245.994003,29.724075 
	C248.955612,35.880825 250.156677,36.596462 256.363190,34.959614 
	C279.185852,28.940557 301.968323,22.769114 324.765106,16.651850 
	C334.229340,14.112227 343.636597,11.330746 353.172028,9.095332 
	C360.680908,7.334998 371.432709,14.440499 373.964447,22.523289 
	C376.116669,29.394405 377.975464,36.357449 380.145111,43.910145 
	C268.346558,73.868240 156.577545,103.818413 44.216148,133.927322 
	C42.176605,125.927605 39.583038,117.842323 38.150127,109.556328 
	C36.672283,101.010490 45.328117,91.503616 54.999832,88.936043 
	C85.715683,80.781837 116.370178,72.394875 147.016327,63.981071 
	C153.230942,62.274868 153.701035,60.329800 153.123795,53.807617 
	C152.046295,41.633259 155.041565,30.348330 162.206619,20.294744 
	C168.353729,11.669474 176.731674,6.175413 186.621048,2.758158 
	C187.023697,2.619022 187.268341,2.022672 187.293304,1.319671 
	C196.020889,1.000000 205.041794,1.000000 214.531342,1.000004 
z"/>
<path fill="#FFFFFF" opacity="1.000000" stroke="none" 
	d="
M385.690094,183.256760 
	C374.013580,174.883453 367.889801,163.371140 365.072083,150.053406 
	C362.056519,135.800476 364.950592,122.360916 372.514130,110.042229 
	C380.606750,96.861748 392.453766,88.446495 407.483093,85.119888 
	C417.952057,82.802673 428.526581,83.268013 438.785675,87.003960 
	C457.171631,93.699402 469.177460,106.714989 473.790070,125.406883 
	C478.903442,146.128174 474.050690,165.045212 458.314362,180.002777 
	C444.790741,192.857162 428.423126,197.314880 409.864471,194.110764 
	C400.896118,192.562393 392.888885,189.393127 385.690094,183.256760 
z"/>
<path fill="#000000" opacity="1.000000" stroke="none" 
	d="
M224.000000,252.000000 
	C224.000000,234.013245 223.967285,216.526413 224.011932,199.039764 
	C224.039917,188.080276 232.367584,179.427353 242.275223,178.890350 
	C252.446075,178.339081 261.080994,189.478302 261.050140,198.106155 
	C260.928070,232.246521 261.000000,266.387573 261.000000,300.528381 
	C261.000000,351.489777 260.906830,402.451508 261.088898,453.412262 
	C261.120361,462.219666 252.546417,474.067322 241.756760,473.072571 
	C233.734787,472.332977 223.951721,465.303131 223.968674,452.348572 
	C224.041901,396.391052 224.000000,340.433380 224.000000,284.475769 
	C224.000000,273.817169 224.000000,263.158600 224.000000,252.000000 
z"/>
<path fill="#000000" opacity="1.000000" stroke="none" 
	d="
M160.076416,470.413086 
	C147.603104,476.833191 135.321228,470.653534 132.509140,459.017761 
	C132.320343,458.236603 132.050903,457.451111 132.018753,456.659515 
	C131.656586,447.744263 131.210373,438.829956 131.025085,429.910461 
	C130.611465,409.998993 130.378464,390.083832 129.983231,370.171906 
	C129.740067,357.921295 129.331512,345.674042 129.000427,333.425171 
	C128.664856,321.009827 128.334976,308.594269 127.999413,296.178925 
	C127.668343,283.930054 127.331505,271.681396 127.000435,259.432526 
	C126.664864,247.017151 126.376389,234.600327 125.984329,222.186752 
	C125.734222,214.267334 125.424530,206.347504 124.976234,198.437225 
	C124.450455,189.159668 132.374741,179.997223 143.014511,179.036545 
	C150.308960,178.377914 160.200104,186.558838 160.952042,193.877731 
	C161.522293,199.427963 161.847122,205.018097 161.967270,210.597229 
	C162.385330,230.008698 162.622971,249.423996 163.016006,268.836060 
	C163.264053,281.086609 163.668457,293.333923 163.999542,305.582794 
	C164.335114,317.998138 164.664993,330.413696 165.000580,342.829041 
	C165.331650,355.077911 165.668488,367.326599 165.999557,379.575470 
	C166.335114,391.990814 166.659790,404.406494 167.002090,416.821655 
	C167.326035,428.570892 167.428009,440.333008 168.086014,452.063751 
	C168.506927,459.567688 166.354538,465.577332 160.076416,470.413086 
z"/>
<path fill="#000000" opacity="1.000000" stroke="none" 
	d="
M359.000000,236.018433 
	C358.666626,255.927048 358.377045,275.339874 357.984009,294.750610 
	C357.735992,307.000305 357.331543,319.246796 357.000458,331.494812 
	C356.664856,343.909302 356.335022,356.323975 355.999451,368.738464 
	C355.668365,380.986481 355.331512,393.234314 355.000458,405.482330 
	C354.664886,417.896820 354.391785,430.313446 353.972900,442.725098 
	C353.789886,448.146698 353.631470,453.602905 352.883484,458.962708 
	C352.038025,465.020966 344.878571,472.045502 338.872223,472.934631 
	C331.364990,474.045898 324.686096,471.955994 320.379181,465.535522 
	C318.442047,462.647736 317.336151,458.744537 317.147552,455.232574 
	C316.692535,446.760193 316.878387,438.244690 317.028656,429.750549 
	C317.251282,417.167389 317.665009,404.587646 318.000580,392.006531 
	C318.331696,379.591919 318.668427,367.177429 318.999542,354.762848 
	C319.335083,342.181732 319.661591,329.600372 320.001556,317.019409 
	C320.328033,304.937866 320.672058,292.856842 320.998505,280.775299 
	C321.338470,268.194305 321.661560,255.612854 322.001526,243.031876 
	C322.328033,230.950333 322.076263,218.812286 323.231720,206.810089 
	C323.876984,200.107468 322.192047,192.671982 327.613953,186.744675 
	C335.723175,177.879547 344.565125,176.810104 353.297729,183.808609 
	C358.255066,187.781509 360.341858,192.876694 360.058136,199.280930 
	C359.523315,211.353134 359.333344,223.440628 359.000000,236.018433 
z"/>
</svg>